<svg xmlns="http://www.w3.org/2000/svg" style="display:none">
  <symbol id="icon-sensory" viewBox="0 0 24 24" fill="none" stroke="currentColor" stroke-width="1.5">
    <path d="M12 2v20" stroke-linecap="round" stroke-linejoin="round"/>
    <path d="M6 6c3 1 6 1 12 0" stroke-linecap="round" stroke-linejoin="round"/>
  </symbol>
+  <symbol id="icon-simple" viewBox="0 0 24 24" fill="none" stroke="currentColor" stroke-width="1.5">
+    <rect x="3" y="3" width="18" height="18" rx="2" stroke-linejoin="round"/>
+    <path d="M7 12h10" stroke-linecap="round" stroke-linejoin="round"/>
+  </symbol>
+  <symbol id="icon-functional" viewBox="0 0 24 24" fill="none" stroke="currentColor" stroke-width="1.5">
+    <path d="M3 12h18" stroke-linecap="round" stroke-linejoin="round"/>
+    <path d="M12 3v18" stroke-linecap="round" stroke-linejoin="round"/>
+  </symbol>
+  <symbol id="icon-sustainable" viewBox="0 0 24 24" fill="none" stroke="currentColor" stroke-width="1.5">
+    <path d="M12 2a7 7 0 0 0-7 7v6l2 2h10l2-2V9a7 7 0 0 0-7-7z" stroke-linejoin="round"/>
+  </symbol>
+  <symbol id="icon-instagram" viewBox="0 0 24 24" fill="none" stroke="currentColor" stroke-width="1.5">
+    <rect x="3" y="3" width="18" height="18" rx="4" stroke-linejoin="round"/>
+    <circle cx="12" cy="12" r="3"/>
+    <path d="M17.5 6.5h.01" stroke-linecap="round"/>
+  </symbol>
+  <symbol id="icon-pinterest" viewBox="0 0 24 24" fill="none" stroke="currentColor" stroke-width="1.5">
+    <path d="M12 2a10 10 0 0 0-3 19.5c-.04-.9-.07-2.3.02-3.3.08-.85.53-2.5.53-2.5s-.14-.28-.14-.7c0-.66.38-1.15.85-1.15.4 0 .6.3.6.66 0 .4-.26 1-.4 1.55-.12.43.26.78.66.78.8 0 1.42-1.02 1.42-2.48 0-1.3-.93-2.22-2.27-2.22-1.55 0-2.48 1.16-2.48 2.36 0 .46.18.96.4 1.23.04.06.05.12.04.18-.04.2-.12.66-.14.75-.02.11-.08.15-.22.09-.84-.39-1.37-1.76-1.37-2.84 0-2.32 1.69-4.45 4.88-4.45 2.57 0 4.56 1.83 4.56 4.27 0 2.55-1.6 4.6-3.83 4.6-0.75 0-1.46-.4-1.7-.9l-.46 1.76c-.16.6-.59 1.35-.88 1.81A10 10 0 1 0 12 2z"/>
+  </symbol>
+  <symbol id="icon-tiktok" viewBox="0 0 24 24" fill="none" stroke="currentColor" stroke-width="1.5">
+    <path d="M9 5v11a4 4 0 1 0 4-4V6" stroke-linecap="round" stroke-linejoin="round"/>
+  </symbol>
+</svg>